<svg width="56" height="56" viewBox="0 0 56 56" fill="none" xmlns="http://www.w3.org/2000/svg">
<g clip-path="url(#clip0_15296_6290)">
<g filter="url(#filter0_dd_15296_6290)">
<rect x="2" y="2" width="52" height="52" rx="4" fill="#7C9CBF"/>
</g>
<mask id="mask0_15296_6290" style="mask-type:alpha" maskUnits="userSpaceOnUse" x="2" y="2" width="52" height="52">
<rect x="2" y="2" width="52" height="52" rx="4" fill="white"/>
</mask>
<g mask="url(#mask0_15296_6290)">
<path opacity="0.86" d="M19.1104 35V23.832H23.9104C24.945 23.832 25.745 24.136 26.3104 24.744C26.8757 25.352 27.1584 26.168 27.1584 27.192C27.1584 28.216 26.8757 29.032 26.3104 29.64C25.745 30.248 24.945 30.552 23.9104 30.552H20.9184V35H19.1104ZM20.9184 28.968H23.7984C24.257 28.968 24.6144 28.8507 24.8704 28.616C25.1264 28.3707 25.2544 28.024 25.2544 27.576V26.808C25.2544 26.36 25.1264 26.0187 24.8704 25.784C24.6144 25.5387 24.257 25.416 23.7984 25.416H20.9184V28.968ZM32.4231 35.192C31.4845 35.192 30.6845 35.0213 30.0231 34.68C29.3725 34.3387 28.8125 33.88 28.3431 33.304L29.5911 32.136C29.9858 32.616 30.4178 32.9787 30.8871 33.224C31.3671 33.4693 31.9111 33.592 32.5191 33.592C33.2338 33.592 33.7725 33.432 34.1351 33.112C34.4978 32.792 34.6791 32.36 34.6791 31.816C34.6791 31.3787 34.5511 31.032 34.2951 30.776C34.0391 30.52 33.5858 30.328 32.9351 30.2L31.9431 30.024C30.8551 29.8213 30.0391 29.464 29.4951 28.952C28.9511 28.44 28.6791 27.736 28.6791 26.84C28.6791 26.3493 28.7698 25.9067 28.9511 25.512C29.1431 25.1067 29.4045 24.7707 29.7351 24.504C30.0765 24.2267 30.4871 24.0133 30.9671 23.864C31.4471 23.7147 31.9858 23.64 32.5831 23.64C33.4258 23.64 34.1565 23.7893 34.7751 24.088C35.3938 24.376 35.9218 24.7973 36.3591 25.352L35.0951 26.472C34.8071 26.0987 34.4551 25.8 34.0391 25.576C33.6231 25.352 33.1058 25.24 32.4871 25.24C31.8471 25.24 31.3511 25.368 30.9991 25.624C30.6471 25.88 30.4711 26.2533 30.4711 26.744C30.4711 27.2133 30.6151 27.5653 30.9031 27.8C31.1911 28.024 31.6391 28.1947 32.2471 28.312L33.2391 28.52C34.3591 28.7333 35.1751 29.096 35.6871 29.608C36.2098 30.12 36.4711 30.824 36.4711 31.72C36.4711 32.2427 36.3805 32.7173 36.1991 33.144C36.0178 33.5707 35.7511 33.9387 35.3991 34.248C35.0578 34.5467 34.6365 34.7813 34.1351 34.952C33.6338 35.112 33.0631 35.192 32.4231 35.192Z" fill="white"/>
</g>
</g>
<defs>
<filter id="filter0_dd_15296_6290" x="-6" y="-2" width="68" height="68" filterUnits="userSpaceOnUse" color-interpolation-filters="sRGB">
<feFlood flood-opacity="0" result="BackgroundImageFix"/>
<feColorMatrix in="SourceAlpha" type="matrix" values="0 0 0 0 0 0 0 0 0 0 0 0 0 0 0 0 0 0 127 0" result="hardAlpha"/>
<feOffset dy="4"/>
<feGaussianBlur stdDeviation="4"/>
<feColorMatrix type="matrix" values="0 0 0 0 0.172549 0 0 0 0 0.152941 0 0 0 0 0.219608 0 0 0 0.08 0"/>
<feBlend mode="normal" in2="BackgroundImageFix" result="effect1_dropShadow_15296_6290"/>
<feColorMatrix in="SourceAlpha" type="matrix" values="0 0 0 0 0 0 0 0 0 0 0 0 0 0 0 0 0 0 127 0" result="hardAlpha"/>
<feOffset dy="2"/>
<feGaussianBlur stdDeviation="2"/>
<feColorMatrix type="matrix" values="0 0 0 0 0.172549 0 0 0 0 0.152941 0 0 0 0 0.219608 0 0 0 0.04 0"/>
<feBlend mode="normal" in2="effect1_dropShadow_15296_6290" result="effect2_dropShadow_15296_6290"/>
<feBlend mode="normal" in="SourceGraphic" in2="effect2_dropShadow_15296_6290" result="shape"/>
</filter>
<clipPath id="clip0_15296_6290">
<rect width="52" height="52" fill="white" transform="translate(2 2)"/>
</clipPath>
</defs>
</svg>
