<svg width="56" height="56" viewBox="0 0 56 56" fill="none" xmlns="http://www.w3.org/2000/svg">
<g clip-path="url(#clip0_15296_6288)">
<g filter="url(#filter0_dd_15296_6288)">
<path fill-rule="evenodd" clip-rule="evenodd" d="M28 56C43.464 56 56 43.464 56 28C56 12.536 43.464 0 28 0C12.536 0 0 12.536 0 28C0 43.464 12.536 56 28 56Z" fill="#7C9CBF"/>
</g>
<mask id="mask0_15296_6288" style="mask-type:alpha" maskUnits="userSpaceOnUse" x="0" y="0" width="56" height="56">
<path fill-rule="evenodd" clip-rule="evenodd" d="M28 56C43.464 56 56 43.464 56 28C56 12.536 43.464 0 28 0C12.536 0 0 12.536 0 28C0 43.464 12.536 56 28 56Z" fill="white"/>
</mask>
<g mask="url(#mask0_15296_6288)">
<path opacity="0.86" d="M20.8918 28.824L19.6598 26.456H19.6118V35H17.8838V23.832H19.8998L23.5478 30.008L24.7798 32.376H24.8278V23.832H26.5558V35H24.5398L20.8918 28.824ZM32.6497 29.784L31.1137 31.544V35H29.3057V23.832H31.1137V29.496H31.1777L32.7777 27.464L35.7857 23.832H37.8977L33.9137 28.536L38.2177 35H36.0417L32.6497 29.784Z" fill="white"/>
</g>
</g>
<defs>
<filter id="filter0_dd_15296_6288" x="-8" y="-4" width="72" height="72" filterUnits="userSpaceOnUse" color-interpolation-filters="sRGB">
<feFlood flood-opacity="0" result="BackgroundImageFix"/>
<feColorMatrix in="SourceAlpha" type="matrix" values="0 0 0 0 0 0 0 0 0 0 0 0 0 0 0 0 0 0 127 0" result="hardAlpha"/>
<feOffset dy="4"/>
<feGaussianBlur stdDeviation="4"/>
<feColorMatrix type="matrix" values="0 0 0 0 0.172549 0 0 0 0 0.152941 0 0 0 0 0.219608 0 0 0 0.08 0"/>
<feBlend mode="normal" in2="BackgroundImageFix" result="effect1_dropShadow_15296_6288"/>
<feColorMatrix in="SourceAlpha" type="matrix" values="0 0 0 0 0 0 0 0 0 0 0 0 0 0 0 0 0 0 127 0" result="hardAlpha"/>
<feOffset dy="2"/>
<feGaussianBlur stdDeviation="2"/>
<feColorMatrix type="matrix" values="0 0 0 0 0.172549 0 0 0 0 0.152941 0 0 0 0 0.219608 0 0 0 0.04 0"/>
<feBlend mode="normal" in2="effect1_dropShadow_15296_6288" result="effect2_dropShadow_15296_6288"/>
<feBlend mode="normal" in="SourceGraphic" in2="effect2_dropShadow_15296_6288" result="shape"/>
</filter>
<clipPath id="clip0_15296_6288">
<rect width="56" height="56" fill="white"/>
</clipPath>
</defs>
</svg>
